<svg width="1152" height="700" viewBox="0 0 1152 700" fill="none" xmlns="http://www.w3.org/2000/svg">
<g clip-path="url(#clip0)">
<circle cx="1197" cy="700" r="348.5" stroke="#02282f" opacity="0.6"/>
<path d="M951 388.382C859.023 461.09 800 573.652 800 700C800 919.257 977.743 1097 1197 1097C1416.26 1097 1594 919.257 1594 700C1594 480.743 1416.26 303 1197 303C1112.59 303 1034.33 329.344 970 374.258" stroke="#02282f" opacity="0.6"/>
<path d="M692.412 450C655.021 525.322 634 610.206 634 700C634 1010.94 886.064 1263 1197 1263C1507.94 1263 1760 1010.94 1760 700C1760 389.064 1507.94 137 1197 137C1172.26 137 1147.9 138.596 1124 141.689M714.036 410.5C790.562 283.108 916.064 188.487 1064.5 152.68" stroke="#02282f" opacity="0.6"/>
<circle cx="704.5" cy="430.5" r="22" stroke="#02282f" opacity="0.6"/>
<circle cx="1094.5" cy="149.5" r="30" stroke="#02282f" opacity="0.6"/>
<circle cx="960.5" cy="381.5" r="12" stroke="#02282f" opacity="0.6"/>
</g>
<defs>
<clipPath id="clip0">
<rect width="1152" height="700" fill="white"/>
</clipPath>
</defs>
</svg>
