<svg width="3807" height="840" viewBox="0 0 3807 840" fill="none" xmlns="http://www.w3.org/2000/svg">
<path fill-rule="evenodd" clip-rule="evenodd" d="M3808.5 -1.00002H0.000106812L0.000106817 0H0V840H3807V646.789C3807.99 647.254 3808.5 647.5 3808.5 647.5V202V-1.00002ZM3807 646.789V0H0.000106817L0.000110626 647.5C0.000110626 647.5 105.388 582.851 180 559C275.746 528.393 355.661 552.881 435.895 577.466C515.244 601.78 594.905 626.19 690.5 597.5C713.367 590.637 735.005 583.926 755.759 577.49C890.81 535.606 988.381 505.347 1143 520.5C1282.64 534.185 1360.67 574.14 1431.58 610.447C1500.57 645.773 1562.82 677.644 1668.5 678.5C1756.48 679.212 1810.11 668.863 1889.02 653.634C1899.21 651.666 1909.83 649.617 1921 647.5C1964.03 639.343 2002.38 626.49 2042.39 613.082C2119.96 587.085 2203.76 559 2340 559C2440.58 559 2539.38 595.417 2640.74 632.775C2747.47 672.115 2857.04 712.5 2974.5 712.5C3093.48 712.5 3166.24 669.704 3234.95 629.289C3298.48 591.92 3358.55 556.586 3448.5 559C3625.58 563.752 3789.71 638.674 3807 646.789Z" fill="white"/>
</svg>
