<svg xmlns="http://www.w3.org/2000/svg" width="383" height="549" fill="none" viewBox="0 0 383 549">
  <path fill="#fff"
    d="M48.6576 225.606C48.0515 225.4 47.6695 224.872 47.5114 224.02L19.3418 50.0428C19.1851 49.3514 19.4097 49.1085 20.0157 49.3143L45.4692 57.9546C46.0753 58.1603 46.4567 58.6088 46.6134 59.3003L62.0481 172.714L76.1576 69.3292C76.3039 68.7406 76.7558 68.5749 77.5133 68.8321L97.967 75.7752C98.5731 75.9809 98.9545 76.4294 99.1112 77.1209L114.773 190.612L128.655 87.1498C128.802 86.5612 129.178 86.3698 129.784 86.5755L155.01 95.1387C155.768 95.3958 156.073 95.8187 155.927 96.4072L130.235 252.101C130.086 252.37 129.862 252.613 129.561 252.83C129.26 252.887 129.109 252.916 129.109 252.916L101.61 243.581C101.155 243.427 100.773 242.898 100.464 241.995L88.1665 151.904L77.2829 234.126C77.1379 234.875 76.7624 235.146 76.1564 234.941L48.6576 225.606Z" />
  <path fill="#fff"
    d="M208.301 282.191C200.12 279.414 192.602 274.708 185.749 268.074C179.046 261.331 173.619 253.666 169.47 245.077C165.319 236.329 163.207 227.555 163.135 218.755L162.738 142.755C162.666 133.955 164.57 126.624 168.45 120.761C172.482 114.95 177.889 111.042 184.671 109.036C191.454 107.031 198.86 107.391 206.89 110.117C215.071 112.894 222.513 117.574 229.215 124.157C235.916 130.74 241.267 138.3 245.265 146.837C249.415 155.425 251.526 164.119 251.598 172.919L252.449 249.073C252.521 257.873 250.542 265.258 246.512 271.229C242.632 277.092 237.301 281.106 230.52 283.272C223.889 285.328 216.483 284.968 208.301 282.191ZM208.063 253.152C212.608 254.695 216.532 254.112 219.833 251.404C223.285 248.587 224.991 244.698 224.95 239.739L224.099 163.584C224.056 158.304 222.428 153.284 219.216 148.524C216.004 143.765 211.974 140.562 207.126 138.916C202.429 137.322 198.429 137.799 195.126 140.347C191.822 142.735 190.192 146.65 190.237 152.089L190.861 228.167C190.904 233.447 192.608 238.572 195.973 243.544C199.336 248.355 203.366 251.558 208.063 253.152Z" />
  <path fill="#fff"
    d="M313.272 317.824C305.242 315.098 297.8 310.418 290.947 303.784C284.092 296.99 278.59 289.218 274.438 280.47C270.439 271.773 268.403 263.025 268.331 254.225L267.801 134.383C267.796 133.743 268.096 133.526 268.702 133.732L294.156 142.372C294.762 142.578 295.067 143.001 295.073 143.641L296.057 263.637C296.101 269.077 297.73 274.256 300.944 279.176C304.307 283.988 308.337 287.19 313.034 288.785C317.882 290.431 321.882 289.954 325.033 287.354C328.335 284.645 329.964 280.571 329.919 275.131L328.935 155.135C328.929 154.495 329.23 154.278 329.836 154.484L355.289 163.124C355.895 163.33 356.201 163.753 356.206 164.393L357.645 284.543C357.719 293.503 355.74 300.968 351.71 306.939C347.831 312.962 342.5 316.976 335.718 318.981C329.087 321.038 321.605 320.653 313.272 317.824Z" />
  <path fill="#fff"
    d="M72.6418 410.608C72.0358 410.402 71.7295 409.899 71.7229 409.099L70.6007 272.304L41.0565 262.275C40.299 262.018 39.9169 261.489 39.9104 260.689L39.9171 233.887C39.9119 233.247 40.2123 233.03 40.8183 233.236L127.178 262.551C127.936 262.809 128.317 263.257 128.323 263.897L128.543 290.776C128.55 291.576 128.25 291.873 127.644 291.668L97.8723 281.561L99.2217 418.434C99.2283 419.234 98.9286 419.531 98.3226 419.325L72.6418 410.608Z" />
  <path fill="#fff"
    d="M141.819 434.09C141.213 433.885 140.906 433.382 140.9 432.582L139.774 267.784C139.769 267.144 140.07 266.927 140.676 267.133L213.627 291.897C214.233 292.102 214.539 292.605 214.546 293.405L214.767 320.284C214.772 320.924 214.471 321.142 213.865 320.936L167.276 305.121L167.584 342.56L214.172 358.375C214.779 358.58 215.084 359.003 215.089 359.643L215.539 386.839C215.544 387.479 215.244 387.696 214.638 387.491L167.822 371.599L168.166 413.597L214.982 429.489C215.589 429.695 215.895 430.198 215.901 430.998L216.126 458.357C216.131 458.997 215.831 459.214 215.225 459.008L141.819 434.09Z" />
  <path fill="#fff"
    d="M237.251 466.485C236.645 466.28 236.339 465.777 236.333 464.977L235.435 300.257C235.429 299.617 235.73 299.4 236.336 299.605L282.243 315.189C290.424 317.966 297.942 322.672 304.795 329.306C311.799 335.832 317.375 343.389 321.525 351.977C325.674 360.405 327.785 369.099 327.858 378.059C327.907 383.979 327.117 389.056 325.49 393.29C323.862 397.364 321.925 400.695 319.68 403.284C317.433 405.712 315.408 407.418 313.603 408.401C321.863 420.777 326.046 433.446 326.152 446.405L326.783 495.681C326.79 496.481 326.414 496.752 325.657 496.495L299.976 487.778C299.37 487.572 299.065 487.229 299.061 486.749L298.654 437.071C298.606 431.311 296.596 425.682 292.623 420.185C288.8 414.58 284.085 410.825 278.479 408.923L263.48 403.831L263.831 474.311C263.838 475.111 263.538 475.409 262.932 475.203L237.251 466.485ZM263.244 375.032L282.788 381.666C287.485 383.261 291.636 382.835 295.242 380.39C298.848 377.944 300.63 374.081 300.587 368.802C300.545 363.682 298.69 358.665 295.024 353.751C291.509 348.888 287.327 345.633 282.479 343.988L262.934 337.353L263.244 375.032Z" />
  <rect width="400" height="20" fill="#fff" transform="matrix(0.94693 0.321439 0.00820296 0.999966 0 4.57764e-05)" />
  <rect width="400" height="20" fill="#fff" transform="matrix(0.94693 0.321439 0.00820296 0.999966 3.28107 399.986)" />
</svg>