<svg width="140" height="140" viewBox="0 0 140 140" fill="none" xmlns="http://www.w3.org/2000/svg">
  <path
    d="M52.9146 43.748L25.2252 96.2539H0L21.6225 55.2571C24.9741 48.8982 33.3358 43.748 40.302 43.748H52.9146ZM114.775 56.8745C114.775 49.6223 120.421 43.748 127.387 43.748C134.354 43.748 140 49.6223 140 56.8745C140 64.1268 134.354 70.001 127.387 70.001C120.421 70.001 114.775 64.1268 114.775 56.8745ZM57.6443 43.748H82.8695L55.1802 96.2539H29.955L57.6443 43.748ZM87.4358 43.748H112.661L91.0444 84.7449C87.6927 91.1037 79.3252 96.2539 72.359 96.2539H59.7464L87.4358 43.748Z"
    fill="#28292a" />
</svg>