<svg width="120" height="120" viewBox="0 0 560 560" fill="none" xmlns="http://www.w3.org/2000/svg">
<path d="M113.658 231.606C113.052 231.4 112.669 230.872 112.511 230.02L84.3418 56.0428C84.1851 55.3514 84.4097 55.1085 85.0157 55.3143L110.469 63.9546C111.075 64.1603 111.457 64.6088 111.613 65.3003L127.048 178.714L141.158 75.3292C141.304 74.7406 141.756 74.5749 142.513 74.8321L162.967 81.7752C163.573 81.9809 163.954 82.4294 164.111 83.1209L179.773 196.612L193.655 93.1498C193.802 92.5612 194.178 92.3698 194.784 92.5755L220.01 101.139C220.768 101.396 221.073 101.819 220.927 102.407L195.235 258.101C195.086 258.37 194.862 258.613 194.561 258.83C194.26 258.887 194.109 258.916 194.109 258.916L166.61 249.581C166.155 249.427 165.773 248.898 165.464 247.995L153.167 157.904L142.283 240.126C142.138 240.875 141.762 241.146 141.156 240.941L113.658 231.606Z" fill="#FFFFFF"/>
<path d="M273.301 288.191C265.12 285.414 257.602 280.708 250.749 274.074C244.046 267.331 238.619 259.666 234.47 251.077C230.319 242.329 228.207 233.555 228.135 224.755L227.738 148.755C227.666 139.955 229.57 132.624 233.45 126.761C237.482 120.95 242.889 117.042 249.671 115.036C256.454 113.031 263.86 113.391 271.89 116.117C280.071 118.894 287.513 123.574 294.215 130.157C300.916 136.74 306.267 144.3 310.265 152.837C314.415 161.425 316.526 170.119 316.598 178.919L317.449 255.073C317.521 263.873 315.542 271.258 311.512 277.229C307.632 283.092 302.301 287.106 295.52 289.272C288.889 291.328 281.483 290.968 273.301 288.191ZM273.063 259.152C277.608 260.695 281.532 260.112 284.833 257.404C288.285 254.587 289.991 250.698 289.95 245.739L289.099 169.584C289.056 164.304 287.428 159.284 284.216 154.524C281.004 149.765 276.974 146.562 272.126 144.916C267.429 143.322 263.429 143.799 260.126 146.347C256.822 148.735 255.192 152.65 255.237 158.089L255.861 234.167C255.904 239.447 257.608 244.572 260.973 249.544C264.336 254.355 268.366 257.558 273.063 259.152Z" fill="#FFFFFF"/>
<path d="M378.272 323.824C370.242 321.098 362.8 316.418 355.947 309.784C349.092 302.99 343.59 295.218 339.438 286.47C335.439 277.773 333.403 269.025 333.331 260.225L332.801 140.383C332.796 139.743 333.096 139.526 333.702 139.732L359.156 148.372C359.762 148.578 360.067 149.001 360.073 149.641L361.057 269.637C361.101 275.077 362.73 280.256 365.944 285.176C369.307 289.988 373.337 293.19 378.034 294.785C382.882 296.431 386.882 295.954 390.033 293.354C393.335 290.645 394.964 286.571 394.919 281.131L393.935 161.135C393.929 160.495 394.23 160.278 394.836 160.484L420.289 169.124C420.895 169.33 421.201 169.753 421.206 170.393L422.645 290.543C422.719 299.503 420.74 306.968 416.71 312.939C412.831 318.962 407.5 322.976 400.718 324.981C394.087 327.038 386.605 326.653 378.272 323.824Z" fill="#FFFFFF"/>
<path d="M137.642 416.608C137.036 416.402 136.729 415.899 136.723 415.099L135.601 278.304L106.057 268.275C105.299 268.018 104.917 267.489 104.91 266.689L104.917 239.887C104.912 239.247 105.212 239.03 105.818 239.236L192.178 268.551C192.936 268.808 193.317 269.257 193.323 269.897L193.543 296.776C193.55 297.576 193.25 297.873 192.644 297.668L162.872 287.561L164.222 424.434C164.228 425.234 163.929 425.531 163.323 425.325L137.642 416.608Z" fill="#FFFFFF"/>
<path d="M206.819 440.09C206.213 439.885 205.906 439.382 205.9 438.582L204.774 273.784C204.769 273.144 205.07 272.927 205.676 273.133L278.627 297.897C279.233 298.102 279.539 298.605 279.546 299.405L279.767 326.284C279.772 326.924 279.471 327.141 278.865 326.936L232.276 311.121L232.584 348.56L279.172 364.375C279.779 364.58 280.084 365.003 280.089 365.643L280.539 392.839C280.544 393.479 280.244 393.696 279.638 393.491L232.822 377.599L233.166 419.597L279.982 435.489C280.589 435.695 280.895 436.198 280.901 436.998L281.126 464.357C281.131 464.997 280.831 465.214 280.225 465.008L206.819 440.09Z" fill="#FFFFFF"/>
<path d="M302.251 472.485C301.645 472.28 301.339 471.777 301.333 470.977L300.435 306.257C300.429 305.617 300.73 305.4 301.336 305.605L347.243 321.189C355.424 323.966 362.942 328.672 369.795 335.306C376.799 341.832 382.375 349.389 386.525 357.977C390.674 366.405 392.785 375.099 392.858 384.059C392.907 389.979 392.117 395.056 390.49 399.29C388.862 403.364 386.925 406.695 384.68 409.284C382.433 411.712 380.408 413.418 378.603 414.401C386.863 426.777 391.046 439.446 391.152 452.405L391.783 501.681C391.79 502.481 391.414 502.752 390.657 502.495L364.976 493.778C364.37 493.572 364.065 493.229 364.061 492.749L363.654 443.071C363.606 437.311 361.596 431.682 357.623 426.185C353.8 420.58 349.085 416.825 343.479 414.923L328.48 409.831L328.831 480.311C328.838 481.111 328.538 481.409 327.932 481.203L302.251 472.485ZM328.244 381.032L347.788 387.666C352.485 389.261 356.636 388.835 360.242 386.39C363.848 383.944 365.63 380.081 365.587 374.802C365.545 369.682 363.69 364.665 360.024 359.751C356.509 354.888 352.327 351.633 347.479 349.988L327.934 343.353L328.244 381.032Z" fill="#FFFFFF"/>
<rect width="400" height="20" transform="matrix(0.94693 0.321439 0.00820296 0.999966 65 6.00006)" fill="#FFFFFF"/>
<rect width="400" height="20" transform="matrix(0.94693 0.321439 0.00820296 0.999966 68.281 405.986)" fill="#FFFFFF"/>
</svg>
